<?xml version="1.0" encoding="UTF-8"?>
<svg xmlns="http://www.w3.org/2000/svg" width="820" height="360" viewBox="0 0 820 360">
  <style>.t { font-family:Helvetica,Arial,sans-serif; font-size:12px; text-anchor:middle; }</style>
  <text class="t" x="410" y="24" style="font-size:14px;font-weight:bold">Accuracy versus strict (BCR) and partial (CSR) consistency</text>
  <text class="t" x="220" y="40" style="font-weight:bold">Symbolic reader (scaled)</text>
<rect x="40" y="50" width="320" height="260" fill="#fff" stroke="#ccc"/>
<line x1="80" y1="270" x2="340" y2="270" stroke="#333"/>
<line x1="80" y1="270" x2="80" y2="70" stroke="#333"/>
<text class="t" x="210" y="300">Acc</text>
<text class="t" x="55" y="170" transform="rotate(-90 55,170)">BCR / CSR</text>
<line x1="80" y1="270" x2="340" y2="70" stroke="#aaa" stroke-dasharray="4 3"/>
<circle cx="227.4" cy="257.4" r="5" fill="#1f4e79"/>
<rect x="223.4" y="164.6" width="8" height="8" fill="#c45c26"/>
<text class="t" x="227.4" y="160.6" style="font-size:11px">B3</text>
<circle cx="321.5" cy="151.8" r="5" fill="#1f4e79"/>
<rect x="317.5" y="89.8" width="8" height="8" fill="#c45c26"/>
<text class="t" x="321.5" y="85.8" style="font-size:11px">B4</text>
<circle cx="340.0" cy="70.0" r="5" fill="#1f4e79"/>
<rect x="336.0" y="66.0" width="8" height="8" fill="#c45c26"/>
<text class="t" x="340.0" y="62.0" style="font-size:11px">B1</text>
<circle cx="333.8" cy="101.2" r="5" fill="#1f4e79"/>
<rect x="329.8" y="71.4" width="8" height="8" fill="#c45c26"/>
<text class="t" x="333.8" y="67.4" style="font-size:11px">H0</text>
  <text class="t" x="610" y="40" style="font-weight:bold">Qwen reader (H4 subset)</text>
<rect x="430" y="50" width="320" height="260" fill="#fff" stroke="#ccc"/>
<line x1="470" y1="270" x2="730" y2="270" stroke="#333"/>
<line x1="470" y1="270" x2="470" y2="70" stroke="#333"/>
<text class="t" x="600" y="300">Acc</text>
<text class="t" x="445" y="170" transform="rotate(-90 445,170)">BCR / CSR</text>
<line x1="470" y1="270" x2="730" y2="70" stroke="#aaa" stroke-dasharray="4 3"/>
<circle cx="495.0" cy="270.0" r="5" fill="#1f4e79"/>
<rect x="491.0" y="214.4" width="8" height="8" fill="#c45c26"/>
<text class="t" x="495.0" y="210.4" style="font-size:11px">B1</text>
<circle cx="494.2" cy="270.0" r="5" fill="#1f4e79"/>
<rect x="490.2" y="214.4" width="8" height="8" fill="#c45c26"/>
<text class="t" x="494.2" y="210.4" style="font-size:11px">B3</text>
<circle cx="508.5" cy="270.0" r="5" fill="#1f4e79"/>
<rect x="504.5" y="200.2" width="8" height="8" fill="#c45c26"/>
<text class="t" x="508.5" y="196.2" style="font-size:11px">B4</text>
<circle cx="518.1" cy="270.0" r="5" fill="#1f4e79"/>
<rect x="514.1" y="209.2" width="8" height="8" fill="#c45c26"/>
<text class="t" x="518.1" y="205.2" style="font-size:11px">H0</text>
  <circle cx="60" cy="340" r="5" fill="#1f4e79"/><text class="t" x="95" y="344" style="text-anchor:start">BCR</text>
  <rect x="140" y="336" width="8" height="8" fill="#c45c26"/><text class="t" x="175" y="344" style="text-anchor:start">CSR</text>
</svg>
